<?xml version="1.0" encoding="utf-8"?>
<!-- Generator: Adobe Illustrator 19.2.1, SVG Export Plug-In . SVG Version: 6.00 Build 0)  -->
<svg version="1.1" id="layer" xmlns="http://www.w3.org/2000/svg" xmlns:xlink="http://www.w3.org/1999/xlink" x="0px" y="0px"
	 viewBox="0 0 652 652" style="enable-background:new 0 0 652 652;" xml:space="preserve">
<style type="text/css">
	.st0{fill:url(#SVGID_1_);}
	.st1{fill:url(#SVGID_2_);}
	.st2{fill:url(#SVGID_3_);}
	.st3{fill:url(#SVGID_4_);}
	.st4{fill:url(#SVGID_5_);}
	.st5{fill:url(#SVGID_6_);}
	.st6{fill:url(#SVGID_7_);}
	.st7{fill:url(#SVGID_8_);}
	.st8{fill:url(#SVGID_9_);}
	.st9{fill:url(#SVGID_10_);}
	.st10{fill:url(#SVGID_11_);}
</style>
<linearGradient id="SVGID_1_" gradientUnits="userSpaceOnUse" x1="857.8246" y1="-356.4282" x2="738.0742" y2="-131.5523" gradientTransform="matrix(1 0 0 -1 -717.07 154.52)">
	<stop  offset="0" style="stop-color:#80CDC6"/>
	<stop  offset="0.51" style="stop-color:#78BBD9"/>
	<stop  offset="1" style="stop-color:#736FB2"/>
</linearGradient>
<path class="st0" d="M41.6,289c1.7,0,3.4-0.1,5.1-0.3v-8.4c0,0-8.7-0.4-11.8,0.9s-6.4,3.6-6.4,8.2v22c0,0,0.3,4.5-1.7,5.1
	s-4.2,0.3-4.9,1.3c-0.7,2-0.7,4.1,0,6c0.6,1,2.8,0.7,4.9,1.3c2,0.6,1.7,5.1,1.7,5.1v22c0,4.7,3.3,6.9,6.4,8.2
	c3,1.3,11.8,0.9,11.8,0.9V353c-1.7-0.2-3.4-0.3-5.1-0.3c-5-0.1-3.9-6.7-3.9-6.7s0.4-10.9,0-17.6c-0.3-5.2-3.6-7-5.2-7.6
	c1.5-0.6,4.8-2.4,5.2-7.6c0.4-6.7,0-17.6,0-17.6S36.7,289.2,41.6,289z"/>
<linearGradient id="SVGID_2_" gradientUnits="userSpaceOnUse" x1="1133.8838" y1="-356.4282" x2="1014.1334" y2="-131.5524" gradientTransform="matrix(1 0 0 -1 -717.07 154.52)">
	<stop  offset="0" style="stop-color:#80CDC6"/>
	<stop  offset="0.51" style="stop-color:#78BBD9"/>
	<stop  offset="1" style="stop-color:#736FB2"/>
</linearGradient>
<path class="st1" d="M317.7,289c1.7,0,3.4-0.1,5.1-0.3v-8.4c0,0-8.7-0.4-11.8,0.9c-3,1.3-6.4,3.6-6.4,8.2v22c0,0,0.3,4.5-1.7,5.1
	s-4.2,0.3-4.9,1.3c-0.7,2-0.7,4.1,0,6c0.6,1,2.8,0.7,4.9,1.3c2,0.6,1.7,5.1,1.7,5.1v22c0,4.7,3.3,6.9,6.4,8.2
	c3,1.3,11.8,0.9,11.8,0.9V353c-1.7-0.2-3.4-0.3-5.1-0.3c-5-0.1-3.9-6.7-3.9-6.7s0.4-10.9,0-17.6c-0.3-5.2-3.6-7-5.2-7.6
	c1.5-0.6,4.8-2.4,5.2-7.6c0.4-6.7,0-17.6,0-17.6S312.7,289.2,317.7,289z"/>
<linearGradient id="SVGID_3_" gradientUnits="userSpaceOnUse" x1="49.104" y1="381.1958" x2="155.7827" y2="201.1288" gradientTransform="matrix(1 0 0 -1 0 652)">
	<stop  offset="0" style="stop-color:#80CDC6"/>
	<stop  offset="0.51" style="stop-color:#78BBD9"/>
	<stop  offset="0.8" style="stop-color:#758CC1"/>
	<stop  offset="1" style="stop-color:#736FB2"/>
</linearGradient>
<polygon class="st2" points="95.1,282.3 79.2,282 39.5,320.8 78,359.4 94.9,359.4 56.9,320.3 "/>
<linearGradient id="SVGID_4_" gradientUnits="userSpaceOnUse" x1="325.2588" y1="381.1921" x2="431.9375" y2="201.1251" gradientTransform="matrix(1 0 0 -1 0 652)">
	<stop  offset="0" style="stop-color:#80CDC6"/>
	<stop  offset="0.51" style="stop-color:#78BBD9"/>
	<stop  offset="0.8" style="stop-color:#758CC1"/>
	<stop  offset="1" style="stop-color:#736FB2"/>
</linearGradient>
<polygon class="st3" points="371.3,282.3 355.3,282 315.7,320.8 354.1,359.4 371.1,359.4 333,320.3 "/>
<linearGradient id="SVGID_5_" gradientUnits="userSpaceOnUse" x1="896.8135" y1="-376.6511" x2="843.1007" y2="-157.9971" gradientTransform="matrix(1 0 0 -1 -717.07 154.52)">
	<stop  offset="0" style="stop-color:#80CDC6"/>
	<stop  offset="0.51" style="stop-color:#78BBD9"/>
	<stop  offset="1" style="stop-color:#736FB2"/>
</linearGradient>
<path class="st4" d="M97.7,321.8c0-17,13-29.6,30.6-29.6c17.5,0,30.6,12.6,30.6,29.6c0,17.1-13.1,29.6-30.6,29.6
	C110.7,351.4,97.7,338.7,97.7,321.8z M152.7,321.8c0-13.9-10.4-24.1-24.4-24.1s-24.5,10.2-24.5,24.1c0,13.9,10.5,24.1,24.5,24.1
	C142.4,345.9,152.7,335.7,152.7,321.8z"/>
<linearGradient id="SVGID_6_" gradientUnits="userSpaceOnUse" x1="961.6973" y1="-360.7061" x2="907.976" y2="-142.052" gradientTransform="matrix(1 0 0 -1 -717.07 154.52)">
	<stop  offset="0" style="stop-color:#80CDC6"/>
	<stop  offset="0.51" style="stop-color:#78BBD9"/>
	<stop  offset="1" style="stop-color:#736FB2"/>
</linearGradient>
<path class="st5" d="M172.7,292.6h23.8c18.7,0,31.2,12,31.2,29.1c0,17.1-12.6,29.1-31.2,29.1h-23.8V292.6z M196.1,345.6
	c15.5,0,25.5-9.8,25.5-23.8s-10-23.8-25.5-23.8h-17.2v47.6L196.1,345.6z"/>
<linearGradient id="SVGID_7_" gradientUnits="userSpaceOnUse" x1="1022.3552" y1="-345.8068" x2="968.6424" y2="-127.1527" gradientTransform="matrix(1 0 0 -1 -717.07 154.52)">
	<stop  offset="0" style="stop-color:#80CDC6"/>
	<stop  offset="0.51" style="stop-color:#78BBD9"/>
	<stop  offset="1" style="stop-color:#736FB2"/>
</linearGradient>
<path class="st6" d="M282.6,345.6v5.3h-41.2v-58.3h39.9v5.3h-33.8v20.7h30.1v5.3h-30.1v21.6L282.6,345.6z"/>
<linearGradient id="SVGID_8_" gradientUnits="userSpaceOnUse" x1="1145.7366" y1="-307.8529" x2="1110.1799" y2="-153.5133" gradientTransform="matrix(1 0 0 -1 -717.07 154.52)">
	<stop  offset="0" style="stop-color:#80CDC6"/>
	<stop  offset="0.51" style="stop-color:#78BBD9"/>
	<stop  offset="1" style="stop-color:#736FB2"/>
</linearGradient>
<path class="st7" d="M383,292.6h6.2v52.9h32.6v5.3H383V292.6z"/>
<linearGradient id="SVGID_9_" gradientUnits="userSpaceOnUse" x1="1202.6903" y1="-294.7325" x2="1167.1335" y2="-140.3931" gradientTransform="matrix(1 0 0 -1 -717.07 154.52)">
	<stop  offset="0" style="stop-color:#80CDC6"/>
	<stop  offset="0.51" style="stop-color:#78BBD9"/>
	<stop  offset="1" style="stop-color:#736FB2"/>
</linearGradient>
<path class="st8" d="M425.7,321.8c0-17,13-29.6,30.6-29.6c17.5,0,30.6,12.6,30.6,29.6c0,17.1-13.1,29.6-30.6,29.6
	C438.6,351.4,425.7,338.7,425.7,321.8z M480.7,321.8c0-13.9-10.4-24.1-24.4-24.1c-14,0-24.5,10.2-24.5,24.1s10.5,24.1,24.5,24.1
	S480.7,335.7,480.7,321.8L480.7,321.8z"/>
<linearGradient id="SVGID_10_" gradientUnits="userSpaceOnUse" x1="1269.3057" y1="-279.3833" x2="1233.7489" y2="-125.0437" gradientTransform="matrix(1 0 0 -1 -717.07 154.52)">
	<stop  offset="0" style="stop-color:#80CDC6"/>
	<stop  offset="0.51" style="stop-color:#78BBD9"/>
	<stop  offset="1" style="stop-color:#736FB2"/>
</linearGradient>
<path class="st9" d="M500.1,326v-33.4h6.2v33.1c0,13.8,6.5,20.1,17.8,20.1c11.3,0,17.9-6.3,17.9-20.1v-33.1h6V326
	c0,16.7-9,25.4-23.9,25.4C509.2,351.4,500.1,342.7,500.1,326z"/>
<linearGradient id="SVGID_11_" gradientUnits="userSpaceOnUse" x1="1330.7587" y1="-265.228" x2="1295.1934" y2="-110.8884" gradientTransform="matrix(1 0 0 -1 -717.07 154.52)">
	<stop  offset="0" style="stop-color:#80CDC6"/>
	<stop  offset="0.51" style="stop-color:#78BBD9"/>
	<stop  offset="1" style="stop-color:#736FB2"/>
</linearGradient>
<path class="st10" d="M566.6,292.6h23.7c18.7,0,31.2,12,31.2,29.1c0,17.1-12.6,29.1-31.2,29.1h-23.7V292.6z M590,345.6
	c15.5,0,25.5-9.8,25.5-23.8S605.4,298,590,298h-17.2v47.6L590,345.6z"/>
</svg>
